<svg width="184" height="56" viewBox="0 0 184 56" fill="none" xmlns="http://www.w3.org/2000/svg">
<path d="M3.07001 27.63C3.27001 13.76 14.3 2.34 28.45 2.49C42.44 2.64 54.01 13.22 53.97 27.78C53.94 42.34 42.4 52.88 28.38 52.98C14.34 53.09 3.16001 41.78 3.07001 27.63Z" fill="#00FFA8"/>
<path d="M106.18 23.08C106.65 22.72 107.01 22.51 107.28 22.21C108.24 21.15 109.38 20.47 110.74 19.94C112.22 19.36 113.66 19.06 115.21 19.17C118.73 19.42 121.29 21.16 123.06 24.19C123.89 25.61 124.13 27.16 124.18 28.72C124.27 31.41 124.22 34.11 124.2 36.8C124.19 38.02 124.05 38.14 122.83 38.17C122.26 38.18 121.68 38.17 120.94 38.17C120.88 37.54 120.8 37.04 120.8 36.53C120.79 33.99 120.76 31.46 120.8 28.92C120.85 26.06 119.44 24.1 116.97 22.94C116.17 22.56 115.12 22.69 114.18 22.61C112.84 22.5 111.71 22.99 110.74 23.88C110.16 24.41 109.49 24.85 109.02 25.46C108.26 26.45 108.04 27.65 108.04 28.88C108.04 31.36 108.04 33.85 108.04 36.33C108.04 36.85 108.04 37.36 108.04 37.85C106.96 38.34 106.03 38.13 104.94 38.1C104.89 37.61 104.8 37.17 104.8 36.72C104.79 34.18 104.86 31.65 104.77 29.11C104.68 26.48 103.64 24.36 101.15 23.11C99.57 22.32 97.93 22.43 96.38 22.85C95.27 23.15 94.21 23.84 93.5 24.92C92.76 26.04 92.23 27.2 92.22 28.55C92.2 31.14 92.21 33.73 92.21 36.32C92.21 36.84 92.21 37.35 92.21 37.88C90.97 38.26 89.92 38.38 88.74 37.73C88.74 37.24 88.74 36.73 88.74 36.21C88.74 34.04 88.77 31.88 88.73 29.71C88.69 27.56 89.16 25.56 90.28 23.71C91.26 22.1 92.62 20.96 94.29 20.07C96.07 19.12 97.94 18.98 99.83 19.21C101.8 19.45 103.53 20.34 104.98 21.71C105.4 22.11 105.74 22.58 106.18 23.08Z" fill="#00FFA8"/>
<path d="M151.9 30.65C153.15 32.94 154.43 34.39 156.75 34.82C158.95 35.22 160.78 34.6 162.47 33.25C163.29 33.99 164.07 34.68 164.89 35.42C163.39 36.98 161.76 37.91 159.85 38.18C155.78 38.75 152.37 37.59 150 34.03C148.76 32.17 148.38 30.16 148.52 27.92C148.64 25.99 149.22 24.28 150.4 22.85C152.24 20.64 154.56 19.31 157.56 19.13C161.66 18.88 165.87 21.65 167.17 25.81C167.53 26.94 167.59 28.19 167.66 29.39C167.72 30.38 167.49 30.53 166.45 30.58C166.13 30.6 165.82 30.58 165.5 30.58C161.59 30.58 157.69 30.58 153.78 30.58C153.27 30.58 152.77 30.61 151.9 30.65ZM152.22 27.02C154.49 27.29 162.71 27.21 163.82 26.93C163.21 24.12 160.67 22.45 157.27 22.63C154.8 22.76 152.43 24.78 152.22 27.02Z" fill="#00FFA8"/>
<path d="M130.06 21.24C131.03 20.74 131.8 20.34 132.58 19.95C136.73 17.89 142.19 19.9 144.43 23.67C145.36 25.23 146.03 26.95 145.98 28.72C145.93 30.76 145.28 32.75 144.01 34.46C141.6 37.7 138.29 38.83 134.45 38.16C130.45 37.46 128.09 34.78 126.92 31C126.72 30.36 126.74 29.64 126.74 28.96C126.72 25.11 126.73 21.25 126.74 17.4C126.74 17.04 126.82 16.69 126.86 16.31C127.89 15.9 128.86 16.13 129.9 16.11C130.1 17.82 129.88 19.45 130.06 21.24ZM142.58 28.87C142.73 25.9 139.73 22.6 136.44 22.55C132.72 22.49 129.93 26 129.97 28.71C130.01 31.45 132.22 34.93 136.21 34.97C140.15 35.02 142.42 31.84 142.58 28.87Z" fill="#00FFA8"/>
<path d="M86.08 38.07C85.61 38.11 85.2 38.16 84.79 38.16C83.04 38.18 82.99 38.14 82.53 36.33C81.89 36.67 81.26 36.99 80.65 37.34C77.15 39.35 71.37 38.21 68.77 34.31C67.04 31.71 66.61 28.98 67.42 26.06C68.62 21.79 72.63 19.14 76.6 19.09C81.08 19.04 85.22 22.66 86.05 26.65C86.14 27.06 86.19 27.48 86.19 27.9C86.2 30.96 86.21 34.02 86.2 37.08C86.21 37.39 86.13 37.69 86.08 38.07ZM82.75 28.72C82.74 25.06 80.28 22.76 76.66 22.56C73.27 22.37 70.39 25.65 70.45 28.85C70.51 32.18 73.25 35.04 76.7 34.97C80.18 34.9 83.08 32.13 82.75 28.72Z" fill="#00FFA8"/>
<path d="M170.26 38.08C170.26 37.03 170.26 36.25 170.26 35.46C170.26 33.4 170.32 31.34 170.24 29.28C170.13 26.43 171.21 24.04 173.05 21.98C173.88 21.05 174.91 20.35 176.18 19.99C177.29 19.67 178.31 19.06 179.52 19.16C179.72 19.18 179.92 19.22 180.2 19.26C180.3 20.37 180.54 21.45 179.92 22.55C178.45 22.56 177.29 23.24 176.07 24.04C174.36 25.16 173.78 26.72 173.71 28.53C173.61 31.06 173.68 33.6 173.68 36.14C173.68 36.51 173.68 36.88 173.67 37.25C173.66 37.82 173.37 38.15 172.8 38.15C172.03 38.15 171.26 38.11 170.26 38.08Z" fill="#00FFA8"/>
<path d="M40.31 39.77C40.37 39.54 40.45 39.4 40.45 39.25C40.45 35.02 40.55 30.79 40.39 26.57C40.33 25.1 39.83 23.54 39.16 22.21C37.81 19.54 35.76 17.44 32.93 16.26C31.47 15.65 29.96 15.17 28.37 15.12C25.15 15.03 22.32 16.08 19.79 18.08C17.82 19.64 16.51 21.7 15.87 23.99C14.85 27.59 15.17 31.14 17.27 34.45C19.63 38.17 23.09 39.96 27.31 40.32C29.77 40.53 32.09 39.76 34.17 38.39C34.76 38 35.38 37.65 36.16 37.18C36.27 38.16 36.36 38.95 36.45 39.77C37.81 39.77 39.06 39.77 40.31 39.77ZM27.89 19.46C32.38 19.4 36.24 22.96 36.24 27.71C36.24 32.6 32.36 36.02 27.75 36.02C23.37 36.02 19.48 32.6 19.56 27.64C19.64 22.58 23.46 19.42 27.89 19.46Z" fill="#0A1A42"/>
</svg>
